<svg version="1.1" xmlns="http://www.w3.org/2000/svg" xmlns:xlink="http://www.w3.org/1999/xlink" width="1432.5" height="503.5"><defs></defs><g transform="translate(0,0)"><g><rect fill="#FFFFFF" stroke="none" x="0" y="0" width="1432.5" height="503.5"></rect></g><g transform="translate(0,0) matrix(1,0,0,1,380,160)"><g><g transform="translate(0,0) scale(1,1)"><g><path fill="#FFFFFF" stroke="none" d="M 0 0 L 100 0 Q 100 0 100 0 L 100 100 Q 100 100 100 100 L 0 100 Q 0 100 0 100 L 0 0 Q 0 0 0 0 Z"></path><g transform="scale(1,1)"><path fill="none" stroke="#333333" d="M 0 0 L 100 0 Q 100 0 100 0 L 100 100 Q 100 100 100 100 L 0 100 Q 0 100 0 100 L 0 0 Q 0 0 0 0 Z" stroke-miterlimit="10" stroke-width="2"></path></g></g><g><g transform="scale(1,1)"><path fill="rgb(0,0,0)" stroke="none" d="M 2 2 L 2 97 L 97 97 L 97 3 L 3 3 Z" fill-opacity="0" opacity="0"></path><path fill="none" stroke="#3C7626" d="M 2 2 M 2 2 L 2 6 M 2 6 M 2 8 L 2 12 M 2 12 M 2 14 L 2 18 M 2 18 M 2 20 L 2 24 M 2 24 M 2 26 L 2 30 M 2 30 M 2 32 L 2 36 M 2 36 M 2 38 L 2 42 M 2 42 M 2 44 L 2 48 M 2 48 M 2 50 L 2 54 M 2 54 M 2 56 L 2 60 M 2 60 M 2 62 L 2 66 M 2 66 M 2 68 L 2 72 M 2 72 M 2 74 L 2 78 M 2 78 M 2 80 L 2 84 M 2 84 M 2 86 L 2 90 M 2 90 M 2 92 L 2 96 M 2 96 M 3 97 L 7 97 M 7 97 M 9 97 L 13 97 M 13 97 M 15 97 L 19 97 M 19 97 M 21 97 L 25 97 M 25 97 M 27 97 L 31 97 M 31 97 M 33 97 L 37 97 M 37 97 M 39 97 L 43 97 M 43 97 M 45 97 L 49 97 M 49 97 M 51 97 L 55 97 M 55 97 M 57 97 L 61 97 M 61 97 M 63 97 L 67 97 M 67 97 M 69 97 L 73 97 M 73 97 M 75 97 L 79 97 M 79 97 M 81 97 L 85 97 M 85 97 M 87 97 L 91 97 M 91 97 M 93 97 L 97 97 M 97 97 M 97 95 L 97 91 M 97 91 M 97 89 L 97 85 M 97 85 M 97 83 L 97 79 M 97 79 M 97 77 L 97 73 M 97 73 M 97 71 L 97 67 M 97 67 M 97 65 L 97 61 M 97 61 M 97 59 L 97 55 M 97 55 M 97 53 L 97 49 M 97 49 M 97 47 L 97 43 M 97 43 M 97 41 L 97 37 M 97 37 M 97 35 L 97 31 M 97 31 M 97 29 L 97 25 M 97 25 M 97 23 L 97 19 M 97 19 M 97 17 L 97 13 M 97 13 M 97 11 L 97 7 M 97 7 M 97 5 L 97 3 L 95 3 M 95 3 M 93 3 L 89 3 M 89 3 M 87 3 L 83 3 M 83 3 M 81 3 L 77 3 M 77 3 M 75 3 L 71 3 M 71 3 M 69 3 L 65 3 M 65 3 M 63 3 L 59 3 M 59 3 M 57 3 L 53 3 M 53 3 M 51 3 L 47 3 M 47 3 M 45 3 L 41 3 M 41 3 M 39 3 L 35 3 M 35 3 M 33 3 L 29 3 M 29 3 M 27 3 L 23 3 M 23 3 M 21 3 L 17 3 M 17 3 M 15 3 L 11 3 M 11 3 M 9 3 L 5 3 M 5 3 M 3 3 L 3 3 Z" stroke-miterlimit="10" stroke-width="2" opacity="0"></path></g></g></g></g></g><g transform="scale(1,1) matrix(1,0,0,1,382,160) translate(2,36)"><text fill="#000000" stroke="none" font-family="Arial" font-size="12px" font-style="normal" font-weight="normal" text-decoration="none" x="14.5" y="11">Extract 4x3 </text><text fill="#000000" stroke="none" font-family="Arial" font-size="12px" font-style="normal" font-weight="normal" text-decoration="none" x="9.5" y="25">rotation block</text></g><g transform="matrix(1,0,0,1,136.4665295403174,205.5)"><g transform="translate(0,0)"><g transform="translate(-148,-203) translate(11.533470459682604,-2.5) matrix(1,0,0,1,0,0)"><g><path fill="none" stroke="#000000" d="M 140.9665295403174 210.0000000000001 L 380 210" stroke-miterlimit="10" stroke-width="2"></path></g></g></g></g><g transform="scale(1,1) matrix(1,0,0,1,70,194) translate(2,0)"><text fill="#000000" stroke="none" font-family="Arial" font-size="14px" font-style="normal" font-weight="bold" text-decoration="none" x="68.5" y="14">T</text></g><g transform="translate(0,0) matrix(1,0,0,1,380,340)"><g><g transform="translate(0,0) scale(1,1)"><g><path fill="#FFFFFF" stroke="none" d="M 0 0 L 100 0 Q 100 0 100 0 L 100 100 Q 100 100 100 100 L 0 100 Q 0 100 0 100 L 0 0 Q 0 0 0 0 Z"></path><g transform="scale(1,1)"><path fill="none" stroke="#333333" d="M 0 0 L 100 0 Q 100 0 100 0 L 100 100 Q 100 100 100 100 L 0 100 Q 0 100 0 100 L 0 0 Q 0 0 0 0 Z" stroke-miterlimit="10" stroke-width="2"></path></g></g><g><g transform="scale(1,1)"><path fill="rgb(0,0,0)" stroke="none" d="M 2 2 L 2 97 L 97 97 L 97 3 L 3 3 Z" fill-opacity="0" opacity="0"></path><path fill="none" stroke="#3C7626" d="M 2 2 M 2 2 L 2 6 M 2 6 M 2 8 L 2 12 M 2 12 M 2 14 L 2 18 M 2 18 M 2 20 L 2 24 M 2 24 M 2 26 L 2 30 M 2 30 M 2 32 L 2 36 M 2 36 M 2 38 L 2 42 M 2 42 M 2 44 L 2 48 M 2 48 M 2 50 L 2 54 M 2 54 M 2 56 L 2 60 M 2 60 M 2 62 L 2 66 M 2 66 M 2 68 L 2 72 M 2 72 M 2 74 L 2 78 M 2 78 M 2 80 L 2 84 M 2 84 M 2 86 L 2 90 M 2 90 M 2 92 L 2 96 M 2 96 M 3 97 L 7 97 M 7 97 M 9 97 L 13 97 M 13 97 M 15 97 L 19 97 M 19 97 M 21 97 L 25 97 M 25 97 M 27 97 L 31 97 M 31 97 M 33 97 L 37 97 M 37 97 M 39 97 L 43 97 M 43 97 M 45 97 L 49 97 M 49 97 M 51 97 L 55 97 M 55 97 M 57 97 L 61 97 M 61 97 M 63 97 L 67 97 M 67 97 M 69 97 L 73 97 M 73 97 M 75 97 L 79 97 M 79 97 M 81 97 L 85 97 M 85 97 M 87 97 L 91 97 M 91 97 M 93 97 L 97 97 M 97 97 M 97 95 L 97 91 M 97 91 M 97 89 L 97 85 M 97 85 M 97 83 L 97 79 M 97 79 M 97 77 L 97 73 M 97 73 M 97 71 L 97 67 M 97 67 M 97 65 L 97 61 M 97 61 M 97 59 L 97 55 M 97 55 M 97 53 L 97 49 M 97 49 M 97 47 L 97 43 M 97 43 M 97 41 L 97 37 M 97 37 M 97 35 L 97 31 M 97 31 M 97 29 L 97 25 M 97 25 M 97 23 L 97 19 M 97 19 M 97 17 L 97 13 M 97 13 M 97 11 L 97 7 M 97 7 M 97 5 L 97 3 L 95 3 M 95 3 M 93 3 L 89 3 M 89 3 M 87 3 L 83 3 M 83 3 M 81 3 L 77 3 M 77 3 M 75 3 L 71 3 M 71 3 M 69 3 L 65 3 M 65 3 M 63 3 L 59 3 M 59 3 M 57 3 L 53 3 M 53 3 M 51 3 L 47 3 M 47 3 M 45 3 L 41 3 M 41 3 M 39 3 L 35 3 M 35 3 M 33 3 L 29 3 M 29 3 M 27 3 L 23 3 M 23 3 M 21 3 L 17 3 M 17 3 M 15 3 L 11 3 M 11 3 M 9 3 L 5 3 M 5 3 M 3 3 L 3 3 Z" stroke-miterlimit="10" stroke-width="2" opacity="0"></path></g></g></g></g></g><g transform="scale(1,1) matrix(1,0,0,1,382,340) translate(2,36)"><text fill="#000000" stroke="none" font-family="Arial" font-size="12px" font-style="normal" font-weight="normal" text-decoration="none" x="15" y="11">Extract last </text><text fill="#000000" stroke="none" font-family="Arial" font-size="12px" font-style="normal" font-weight="normal" text-decoration="none" x="26" y="25">column</text></g><g transform="matrix(1,0,0,1,261.5,206.5)"><g transform="translate(0,0)"><g transform="translate(-266,-211) translate(4.5,4.5) matrix(1,0,0,1,0,0)"><g><path fill="none" stroke="#000000" d="M 266 211 L 266 390 L 380 390" stroke-miterlimit="10" stroke-width="2"></path></g></g></g></g><g transform="matrix(1,0,0,1,184.5,188.5)"><g transform="translate(0,0)"><g transform="translate(-223,-193) translate(38.5,4.5) matrix(1,0,0,1,0,0)"><g><path fill="none" stroke="#000000" d="M 223 193 L 189 228" stroke-miterlimit="10" stroke-width="2"></path></g></g></g></g><g transform="scale(1,1) matrix(1,0,0,1,223,193) translate(-39.46201540802902,-2.286449782925086)"><g><rect fill="#FFFFFF" stroke="none" x="-2" y="-3" width="18" height="18"></rect></g><text fill="#000000" stroke="none" font-family="Arial" font-size="12px" font-style="normal" font-weight="normal" text-decoration="none" x="0" y="11">16</text></g><g transform="matrix(1,0,0,1,475.5,205.5)"><g transform="translate(0,0)"><g transform="translate(-483,-210) translate(7.5,4.5) matrix(1,0,0,1,0,0)"><g><path fill="none" stroke="#000000" d="M 480 210 L 740 210" stroke-miterlimit="10" stroke-width="2"></path></g></g></g></g><g transform="matrix(1,0,0,1,475.5,385.5)"><g transform="translate(0,0)"><g transform="translate(-485,-390) translate(9.5,4.5) matrix(1,0,0,1,0,0)"><g><path fill="none" stroke="#000000" d="M 480 390 L 653.0028901492686 390" stroke-miterlimit="10" stroke-width="2"></path></g></g></g></g><g transform="matrix(1,0,0,1,560.5,187.5)"><g transform="translate(0,0)"><g transform="translate(-599,-192) translate(38.5,4.5) matrix(1,0,0,1,0,0)"><g><path fill="none" stroke="#000000" d="M 599 192 L 565 227" stroke-miterlimit="10" stroke-width="2"></path></g></g></g></g><g transform="scale(1,1) matrix(1,0,0,1,599,192) translate(-39.46201540802885,-2.286449782925235)"><g><rect fill="#FFFFFF" stroke="none" x="-2" y="-3" width="18" height="18"></rect></g><text fill="#000000" stroke="none" font-family="Arial" font-size="12px" font-style="normal" font-weight="normal" text-decoration="none" x="0" y="11">12</text></g><g transform="matrix(1,0,0,1,554.5,366.5)"><g transform="translate(0,0)"><g transform="translate(-593,-371) translate(38.5,4.5) matrix(1,0,0,1,0,0)"><g><path fill="none" stroke="#000000" d="M 593 371 L 559 406" stroke-miterlimit="10" stroke-width="2"></path></g></g></g></g><g transform="scale(1,1) matrix(1,0,0,1,593,371) translate(-35.96201540802885,-2.286449782925235)"><g><rect fill="#FFFFFF" stroke="none" x="-2" y="-3" width="11" height="18"></rect></g><text fill="#000000" stroke="none" font-family="Arial" font-size="12px" font-style="normal" font-weight="normal" text-decoration="none" x="0" y="11">4</text></g><g transform="translate(0,0) matrix(1,0,0,1,740,170)"><g><g transform="translate(0,0) scale(0.8,0.8)"><g><path fill="#FFFFFF" stroke="none" d="M 100 50 A 50 50 0 1 0 99.99997500000207 50.04999999166668 Z"></path><g transform="scale(1.25,1.25)"><path fill="none" stroke="#333333" d="M 40 0 C 62.091387999999995 0 80 17.908612 80 40 C 80 62.091387999999995 62.091387999999995 80 40 80 C 17.908612 80 0 62.091387999999995 0 40 C 0 17.908612 17.908612 0 40 0 Z" stroke-miterlimit="10" stroke-width="2"></path></g></g></g></g></g><g transform="scale(1,1) matrix(1,0,0,1,741.7777777777778,170) translate(2,33)"><text fill="#000000" stroke="none" font-family="Arial" font-size="12px" font-style="normal" font-weight="normal" text-decoration="none" x="0.22222222222222143" y="11">Multiplication</text></g><g transform="matrix(1,0,0,1,143.49684557234718,86.50000000000003)"><g transform="translate(0,0)"><g transform="translate(-136,-91) translate(-7.496845572347183,4.499999999999972) matrix(1,0,0,1,0,0)"><g><path fill="none" stroke="#000000" d="M 147.99684557234718 91.00000000000028 L 782.0278631761938 91.00000000000003" stroke-miterlimit="10" stroke-width="2"></path></g></g></g></g><g transform="scale(1,1) matrix(1,0,0,1,136,91) translate(8.496845572347183,-27.999999999999716)"><g><rect fill="#FFFFFF" stroke="none" x="-2" y="-2.5" width="29" height="20.5"></rect></g><text fill="#000000" stroke="none" font-family="Arial" font-size="14px" font-style="normal" font-weight="bold" text-decoration="none" x="0" y="14">Z_0</text></g><g transform="matrix(1,0,0,1,775.5,87.5)"><g transform="translate(0,0)"><g transform="translate(-781,-89) translate(5.5,1.5) matrix(1,0,0,1,0,0)"><g><path fill="none" stroke="#000000" d="M 780 92 L 780 131 L 780 131 L 780 170" stroke-miterlimit="10" stroke-width="2"></path></g></g></g></g><g transform="matrix(1,0,0,1,409.5,68.5)"><g transform="translate(0,0)"><g transform="translate(-448,-73) translate(38.5,4.5) matrix(1,0,0,1,0,0)"><g><path fill="none" stroke="#000000" d="M 448 73 L 414 108" stroke-miterlimit="10" stroke-width="2"></path></g></g></g></g><g transform="scale(1,1) matrix(1,0,0,1,448,73) translate(-35.962015408029025,-2.286449782925054)"><g><rect fill="#FFFFFF" stroke="none" x="-2" y="-3" width="11" height="18"></rect></g><text fill="#000000" stroke="none" font-family="Arial" font-size="12px" font-style="normal" font-weight="normal" text-decoration="none" x="0" y="11">4</text></g><g transform="translate(0,0) matrix(1,0,0,1,650,350)"><g><g transform="translate(0,0) scale(0.9,0.9)"><g><path fill="#FFFFFF" stroke="none" d="M 100 50 A 50 50 0 1 0 99.99997500000207 50.04999999166668 Z"></path><g transform="scale(1.1111111111111112,1.1111111111111112)"><path fill="none" stroke="#333333" d="M 45 0 C 69.8528115 0 90 20.147188500000002 90 45 C 90 69.8528115 69.8528115 90 45 90 C 20.147188500000002 90 0 69.8528115 0 45 C 0 20.147188500000002 20.147188500000002 0 45 0 Z" stroke-miterlimit="10" stroke-width="2"></path></g></g></g></g></g><g transform="scale(1,1) matrix(1,0,0,1,652,350) translate(2,38)"><text fill="#000000" stroke="none" font-family="Arial" font-size="12px" font-style="normal" font-weight="normal" text-decoration="none" x="10" y="11">Subtraction</text></g><g transform="translate(0,0) matrix(1,0,0,1,920,270)"><g><g transform="translate(0,0) scale(0.8,0.8)"><g><path fill="#FFFFFF" stroke="none" d="M 100 50 A 50 50 0 1 0 99.99997500000207 50.04999999166668 Z"></path><g transform="scale(1.25,1.25)"><path fill="none" stroke="#333333" d="M 40 0 C 62.091387999999995 0 80 17.908612 80 40 C 80 62.091387999999995 62.091387999999995 80 40 80 C 17.908612 80 0 62.091387999999995 0 40 C 0 17.908612 17.908612 0 40 0 Z" stroke-miterlimit="10" stroke-width="2"></path></g></g></g></g></g><g transform="scale(1,1) matrix(1,0,0,1,922,270) translate(2,26)"><text fill="#000000" stroke="none" font-family="Arial" font-size="12px" font-style="normal" font-weight="normal" text-decoration="none" x="18.5" y="11">Cross </text><text fill="#000000" stroke="none" font-family="Arial" font-size="12px" font-style="normal" font-weight="normal" text-decoration="none" x="15" y="25">Multiply</text></g><g transform="matrix(1,0,0,1,815.5,205.5)"><g transform="translate(0,0)"><g transform="translate(-816,-207) translate(0.5,1.5) matrix(1,0,0,1,0,0)"><g><path fill="none" stroke="#000000" d="M 820 210 L 1067.0080970332751 210.00000000000003" stroke-miterlimit="10" stroke-width="2"></path></g></g></g></g><g transform="matrix(1,0,0,1,955.5,204.5)"><g transform="translate(0,0)"><g transform="translate(-958,-211) translate(2.5,6.5) matrix(1,0,0,1,0,0)"><g><path fill="none" stroke="#000000" d="M 960 209 L 960 270" stroke-miterlimit="10" stroke-width="2"></path></g></g></g></g><g transform="matrix(1,0,0,1,735.5,345.5)"><g transform="translate(0,0)"><g transform="translate(-739,-393) translate(3.5,47.5) matrix(1,0,0,1,0,0)"><g><path fill="none" stroke="#000000" d="M 740 395 L 960 395 L 960 350" stroke-miterlimit="10" stroke-width="2"></path></g></g></g></g><g transform="matrix(1,0,0,1,871.5,188.5)"><g transform="translate(0,0)"><g transform="translate(-910,-193) translate(38.5,4.5) matrix(1,0,0,1,0,0)"><g><path fill="none" stroke="#000000" d="M 910 193 L 876 228" stroke-miterlimit="10" stroke-width="2"></path></g></g></g></g><g transform="scale(1,1) matrix(1,0,0,1,910,193) translate(-35.96201540802885,-2.286449782925235)"><g><rect fill="#FFFFFF" stroke="none" x="-2" y="-3" width="11" height="18"></rect></g><text fill="#000000" stroke="none" font-family="Arial" font-size="12px" font-style="normal" font-weight="normal" text-decoration="none" x="0" y="11">4</text></g><g transform="matrix(1,0,0,1,806.5,372.5)"><g transform="translate(0,0)"><g transform="translate(-845,-377) translate(38.5,4.5) matrix(1,0,0,1,0,0)"><g><path fill="none" stroke="#000000" d="M 845 377 L 811 412" stroke-miterlimit="10" stroke-width="2"></path></g></g></g></g><g transform="scale(1,1) matrix(1,0,0,1,845,377) translate(-35.96201540802885,-2.286449782925235)"><g><rect fill="#FFFFFF" stroke="none" x="-2" y="-3" width="11" height="18"></rect></g><text fill="#000000" stroke="none" font-family="Arial" font-size="12px" font-style="normal" font-weight="normal" text-decoration="none" x="0" y="11">4</text></g><g transform="matrix(1,0,0,1,995.5,305.5)"><g transform="translate(0,0)"><g transform="translate(-1000,-310) translate(4.5,4.5) matrix(1,0,0,1,0,0)"><g><path fill="none" stroke="#000000" d="M 1000 310 L 1067.0298440994754 310" stroke-miterlimit="10" stroke-width="2"></path></g></g></g></g><g transform="translate(0,0) matrix(-1.8369701961596905e-16,-1,1,-1.8369701961596905e-16,1067.5,372.5)"><g><g transform="translate(0,0) scale(2.5000000000000004,0.95)"><g><g transform="scale(0.3999999999999999,1.0526315789473684)"><path fill="#FFFFFF" stroke="#333333" d="M -31.250000000000007 0 L 281.25000000000006 0 L 218.75000000000003 95 L 31.250000000000007 95 L -31.250000000000007 0 Z" stroke-miterlimit="10" stroke-width="2"></path></g></g></g></g></g><g transform="scale(1,1) matrix(-1.8369701961596905e-16,-1,1,-1.8369701961596905e-16,1067.5,370.5) translate(2,39.5)"><text fill="#000000" stroke="none" font-family="Arial" font-size="14px" font-style="normal" font-weight="normal" text-decoration="none" x="51.500000000000014" y="14">Joint Type Multiplexer</text></g><g transform="matrix(1,0,0,1,1110.5,29.409650638458444)"><g transform="translate(0,0)"><g transform="translate(-1120,-125) translate(9.5,95.59034936154156) matrix(1,0,0,1,0,0)"><g><path fill="none" stroke="#000000" d="M 1115 122.49999999999997 L 1115 33.909650638458444" stroke-miterlimit="10" stroke-width="2"></path></g></g></g></g><g transform="scale(1,1) matrix(1,0,0,1,1120,125) translate(1.5,-97.50000000000003)"><g><rect fill="#FFFFFF" stroke="none" x="-2" y="-2.5" width="31" height="20.5"></rect></g><text fill="#000000" stroke="none" font-family="Arial" font-size="14px" font-style="normal" font-weight="normal" text-decoration="none" x="0" y="14">type</text></g><g transform="matrix(1,0,0,1,132.5,435.5)"><g transform="translate(0,0)"><g transform="translate(-695,-442) translate(562.5,6.5) matrix(1,0,0,1,0,0)"><g><path fill="none" stroke="#000000" d="M 695 440 L 695 479 L 137 479" stroke-miterlimit="10" stroke-width="2"></path></g></g></g></g><g transform="scale(1,1) matrix(1,0,0,1,695,442) translate(-563,9)"><g><rect fill="#FFFFFF" stroke="none" x="-2" y="-2.5" width="8" height="20.5"></rect></g><text fill="#000000" stroke="none" font-family="Arial" font-size="14px" font-style="normal" font-weight="bold" text-decoration="none" x="0" y="14">s</text><g><rect fill="#FFFFFF" stroke="none" x="8" y="-2.5" width="8" height="20.5"></rect></g><text fill="#000000" stroke="none" font-family="Arial" font-size="14px" font-style="normal" font-weight="bold" text-decoration="none" x="8" y="14">&#160;</text></g><g transform="matrix(1,0,0,1,1008.5,288.5)"><g transform="translate(0,0)"><g transform="translate(-1047,-293) translate(38.5,4.5) matrix(1,0,0,1,0,0)"><g><path fill="none" stroke="#000000" d="M 1047 293 L 1013 328" stroke-miterlimit="10" stroke-width="2"></path></g></g></g></g><g transform="scale(1,1) matrix(1,0,0,1,1047,293) translate(-35.96201540802885,-2.286449782925235)"><g><rect fill="#FFFFFF" stroke="none" x="-2" y="-3" width="11" height="18"></rect></g><text fill="#000000" stroke="none" font-family="Arial" font-size="12px" font-style="normal" font-weight="normal" text-decoration="none" x="0" y="11">4</text></g><g transform="matrix(1,0,0,1,1158,242.99999999999997)"><g transform="translate(0,0)"><g transform="translate(-1159,-245) translate(1,2.0000000000000284) matrix(1,0,0,1,0,0)"><g><path fill="none" stroke="#000000" d="M 1162.5 247.49999999999997 L 1345.0006849302215 247.49999999999997" stroke-miterlimit="10" stroke-width="2"></path></g></g></g></g><g transform="scale(1,1) matrix(1,0,0,1,1159,245) translate(115.5,-25.50000000000003)"><g><rect fill="#FFFFFF" stroke="none" x="-2" y="-2.5" width="142" height="20.5"></rect></g><text fill="#000000" stroke="none" font-family="Arial" font-size="14px" font-style="normal" font-weight="bold" text-decoration="none" x="0" y="14">Column of Jacobian</text></g><g transform="matrix(1,0,0,1,1211.5,222.5)"><g transform="translate(0,0)"><g transform="translate(-1250,-227) translate(38.5,4.5) matrix(1,0,0,1,0,0)"><g><path fill="none" stroke="#000000" d="M 1250 227 L 1216 262" stroke-miterlimit="10" stroke-width="2"></path></g></g></g></g><g transform="scale(1,1) matrix(1,0,0,1,1250,227) translate(-35.96201540802885,-2.286449782925235)"><g><rect fill="#FFFFFF" stroke="none" x="-2" y="-3" width="11" height="18"></rect></g><text fill="#000000" stroke="none" font-family="Arial" font-size="12px" font-style="normal" font-weight="normal" text-decoration="none" x="0" y="11">4</text></g></g></svg>